<?xml version="1.0" encoding="UTF-8"?>
<!DOCTYPE svg PUBLIC "-//W3C//DTD SVG 1.1//EN" "http://www.w3.org/Graphics/SVG/1.1/DTD/svg11.dtd">
<svg xmlns="http://www.w3.org/2000/svg" version="1.1" width="32px" height="32px" style="shape-rendering:geometricPrecision; text-rendering:geometricPrecision; image-rendering:optimizeQuality; fill-rule:evenodd; clip-rule:evenodd" xmlns:xlink="http://www.w3.org/1999/xlink">
<g><path style="opacity:1" fill="#fcf2f0" d="M -0.5,-0.5 C 10.1667,-0.5 20.8333,-0.5 31.5,-0.5C 31.5,10.1667 31.5,20.8333 31.5,31.5C 20.8333,31.5 10.1667,31.5 -0.5,31.5C -0.5,20.8333 -0.5,10.1667 -0.5,-0.5 Z"/></g>
<g><path style="opacity:1" fill="#df2c25" d="M 4.5,1.5 C 5.94639,0.387053 7.61305,0.220387 9.5,1C 8.83333,1.33333 8.16667,1.66667 7.5,2C 9.38473,4.68833 9.71806,7.52166 8.5,10.5C 9.02527,11.1924 9.69194,11.6924 10.5,12C 8.5,12.6667 6.5,12.6667 4.5,12C 6.2231,11.2249 7.2231,9.8916 7.5,8C 6.96125,5.51822 5.96125,3.35156 4.5,1.5 Z"/></g>
<g><path style="opacity:1" fill="#de1e1b" d="M 17.5,0.5 C 24.665,0.527759 26.665,0.861092 23.5,1.5C 23.0728,4.37606 22.4062,7.20939 21.5,10C 21.9054,10.9454 22.572,11.6121 23.5,12C 21.5,12.6667 19.5,12.6667 17.5,12C 18.428,11.6121 19.0946,10.9454 19.5,10C 20.1043,7.47615 20.771,4.97615 21.5,2.5C 20.3493,1.26899 19.1827,1.26899 18,2.5C 17.5357,1.90558 17.369,1.23891 17.5,0.5 Z"/></g>
<g><path style="opacity:1" fill="#000000" d="M 9.5,20.5 C 17.1477,19.3073 19.1477,19.3073 15.5,20.5C 14.9889,24.0297 15.6556,27.1963 17.5,30C 15.8333,30.6667 14.1667,30.6667 12.5,30C 14.3398,27.1737 15.0065,24.0071 14.5,20.5C 12.8333,20.5 11.1667,20.5 9.5,20.5 Z"/></g>
</svg>
